<svg width="164" height="130" viewBox="0 0 164 130" fill="none" xmlns="http://www.w3.org/2000/svg">
<path d="M145.598 56.124C144.283 55.1046 142.686 54.4491 140.989 54.2321C139.293 54.0151 137.564 54.2453 136.001 54.8966L106.923 66.903L90.0281 38.6213C89.2206 37.3009 88.0506 36.2028 86.6374 35.4389C85.2241 34.675 83.6181 34.2725 81.9828 34.2725C80.3475 34.2725 78.7415 34.675 77.3282 35.4389C75.915 36.2028 74.745 37.3009 73.9375 38.6213L57.0423 66.903L27.9642 54.8966C26.3983 54.2463 24.6676 54.0157 22.968 54.2309C21.2683 54.4462 19.6673 55.0986 18.3461 56.1145C17.0249 57.1304 16.036 58.4693 15.4914 59.9797C14.9467 61.4902 14.868 63.112 15.2641 64.6618L29.8606 122.453C30.1397 123.572 30.6605 124.626 31.3915 125.553C32.1225 126.479 33.0484 127.258 34.1131 127.842C35.5546 128.644 37.2028 129.068 38.8828 129.07C39.6995 129.068 40.512 128.96 41.2964 128.749C67.9025 121.919 96.0057 121.919 122.612 128.749C125.041 129.343 127.625 129.016 129.795 127.842C130.866 127.265 131.797 126.489 132.529 125.561C133.261 124.633 133.778 123.575 134.048 122.453L148.702 64.6618C149.093 63.1116 149.01 61.4905 148.462 59.9818C147.913 58.4731 146.922 57.1368 145.598 56.124Z" fill="#FFAA00"/>
<circle cx="81.9801" cy="19.923" r="19.1327" fill="#FFAA00"/>
<circle cx="81.9801" cy="86.8874" r="14.3495" fill="#BE9502"/>
<circle cx="151.336" cy="51.0136" r="11.9579" fill="#FFAA00"/>
<circle cx="12.6242" cy="51.0136" r="11.9579" fill="#FFAA00"/>
<circle cx="46.1062" cy="94.0622" r="7.17476" fill="#BE9502"/>
<circle cx="117.854" cy="94.0622" r="7.17476" fill="#BE9502"/>
</svg>
