<?xml version="1.0" standalone="no"?>
<!DOCTYPE svg PUBLIC "-//W3C//DTD SVG 20010904//EN"
 "http://www.w3.org/TR/2001/REC-SVG-20010904/DTD/svg10.dtd">
<svg version="1.0" xmlns="http://www.w3.org/2000/svg"
 width="51.000000pt" height="51.000000pt" viewBox="0 0 51.000000 51.000000"
 preserveAspectRatio="xMidYMid meet">

<g transform="translate(0.000000,51.000000) scale(0.100000,-0.100000)"
fill="#000000" stroke="none">
<path d="M256 485 c-8 -31 -38 -33 -57 -4 -13 18 -17 19 -42 8 -23 -10 -27
-18 -25 -43 3 -30 1 -31 -35 -31 -53 0 -74 -28 -47 -62 24 -30 17 -50 -21 -58
-24 -5 -29 -12 -29 -35 0 -23 5 -30 30 -35 34 -8 41 -37 14 -66 -12 -14 -13
-22 -4 -39 9 -17 17 -20 44 -14 39 7 52 -6 47 -49 -4 -37 36 -55 61 -26 23 26
53 24 66 -6 21 -47 72 -29 72 25 0 26 20 30 52 12 25 -15 29 -14 47 2 22 20
17 41 -22 83 l-20 22 -29 -24 c-76 -64 -188 -41 -234 48 l-15 27 71 0 c62 0
130 18 130 35 0 17 -68 35 -130 35 l-72 0 19 32 c32 55 79 80 141 76 37 -3 59
-11 77 -28 21 -20 28 -22 50 -12 14 7 30 23 36 36 21 46 -12 80 -56 56 -28
-15 -45 -6 -45 25 0 41 -64 50 -74 10z"/>
</g>
</svg>
