<?xml version="1.0" standalone="no"?>
<!DOCTYPE svg PUBLIC "-//W3C//DTD SVG 20010904//EN"
 "http://www.w3.org/TR/2001/REC-SVG-20010904/DTD/svg10.dtd">
<svg version="1.0" xmlns="http://www.w3.org/2000/svg"
 width="63.000000pt" height="56.000000pt" viewBox="0 0 63.000000 56.000000"
 preserveAspectRatio="xMidYMid meet">

<g transform="translate(0.000000,56.000000) scale(0.100000,-0.100000)"
fill="#000000" stroke="none">
<path d="M600 513 c-13 -28 -13 -28 -19 -5 -5 20 -9 16 -31 -30 -14 -29 -44
-72 -68 -96 -31 -29 -42 -47 -38 -59 6 -15 4 -14 -14 2 l-20 18 15 -43 c19
-54 12 -64 -10 -16 -17 35 -33 51 -21 21 3 -9 0 -15 -10 -15 -8 0 -13 4 -10 8
2 4 -20 5 -50 2 -35 -4 -54 -2 -55 4 0 6 -4 2 -9 -9 -5 -11 -9 -14 -9 -7 -1 6
-12 12 -25 12 -15 0 -27 7 -30 18 -3 10 -22 25 -41 34 -29 13 -37 13 -46 2
-17 -21 -27 -8 -26 36 0 27 -6 49 -18 63 -11 12 -18 29 -17 37 2 10 -7 16 -24
17 l-26 1 30 -31 c24 -25 29 -38 25 -59 -3 -18 -1 -28 7 -28 7 0 9 -8 5 -21
-8 -25 40 -81 97 -110 49 -25 50 -30 33 -80 -9 -24 -13 -49 -11 -55 3 -7 0
-14 -6 -16 -18 -6 0 -55 30 -83 35 -33 48 -27 45 21 -2 31 -1 35 6 18 9 -22
29 -39 36 -33 7 8 -32 140 -41 137 -5 -2 -10 5 -12 16 -3 11 0 16 7 12 12 -8
15 6 4 18 -4 4 -15 -3 -25 -16 -10 -13 -18 -18 -18 -13 0 18 62 86 87 96 36
13 72 0 89 -32 8 -17 18 -28 22 -25 4 2 8 -35 9 -82 3 -98 10 -129 23 -97 7
17 9 17 9 3 1 -10 6 -18 11 -18 7 0 9 34 4 101 l-6 101 35 37 c61 64 90 119
82 158 -5 29 -2 38 19 58 14 13 26 31 26 40 0 22 -5 19 -20 -12z m-161 -397
c2 -45 -6 -27 -12 29 -4 34 -3 42 3 25 4 -14 8 -38 9 -54z m-242 -38 c-3 -8
-6 -5 -6 6 -1 11 2 17 5 13 3 -3 4 -12 1 -19z"/>
<path d="M298 463 c-24 -4 -28 -9 -28 -38 0 -19 -4 -37 -10 -40 -5 -3 -10 -12
-10 -19 0 -17 57 -12 79 8 17 15 19 15 24 1 4 -8 14 -15 24 -15 11 0 14 3 7 8
-6 4 -14 24 -18 44 -4 21 -11 40 -15 43 -5 3 -7 -4 -4 -15 4 -14 0 -20 -12
-20 -13 0 -16 6 -11 25 4 14 5 24 4 24 -2 -1 -15 -4 -30 -6z"/>
<path d="M311 129 c-1 -65 3 -101 12 -114 22 -29 37 -11 25 32 -5 20 -16 68
-23 107 l-13 71 -1 -96z"/>
<path d="M331 200 c-1 -34 25 -135 44 -168 15 -27 16 -26 9 18 -3 25 -11 51
-17 58 -5 7 -16 36 -23 65 -7 31 -13 42 -13 27z"/>
<path d="M280 160 c0 -11 4 -20 9 -20 5 0 7 9 4 20 -3 11 -7 20 -9 20 -2 0 -4
-9 -4 -20z"/>
<path d="M367 160 c-3 -11 -1 -23 4 -26 5 -3 9 6 9 20 0 31 -6 34 -13 6z"/>
<path d="M391 95 c0 -11 4 -29 9 -40 l9 -20 0 20 c0 11 -4 29 -9 40 l-9 20 0
-20z"/>
</g>
</svg>
